<svg xmlns="http://www.w3.org/2000/svg" width="234.353" height="68.533" viewBox="0 0 234.353 68.533">
  <g id="Gruppe_375" data-name="Gruppe 375" transform="translate(-92.064 -84.336)">
    <g id="Gruppe_310" data-name="Gruppe 310" transform="translate(92.064 84.336)">
      <path id="Pfad_79" data-name="Pfad 79" d="M127.408,84.336v8.7H103.384v12.09H126.1v8.547H103.384v24.564H92.064v-53.9Z" transform="translate(-92.064 -84.336)"/>
    </g>
    <g id="Gruppe_311" data-name="Gruppe 311" transform="translate(135.039 84.336)">
      <path id="Pfad_80" data-name="Pfad 80" d="M128.075,84.336v53.9H117.526v-53.9Z" transform="translate(-117.526 -84.336)"/>
      <path id="Pfad_81" data-name="Pfad 81" d="M128.523,122.021c0-8.086,6.083-13.477,18.711-13.477a21.872,21.872,0,0,1,8.7,1.387v-2.311c0-6.083-2.849-8.625-8.162-8.625-4.775,0-7.777,1.926-8.549,6.93l-9.779-.692c1.387-8.393,7.085-13.553,18.635-13.553,12.321,0,18.019,5.62,18.019,17.172l.078,24.333H155.936V125.1c-1.926,6.314-7.47,9.163-13.86,9.163C133.99,134.264,128.523,129.721,128.523,122.021Zm27.413-7.855h-5.622c-8.009,0-11.165,2.927-11.165,6.93,0,3.543,2.464,5.544,6.623,5.544C151.933,126.64,156.014,122.174,155.936,114.166Z" transform="translate(-109.962 -79.284)"/>
    </g>
    <g id="Gruppe_312" data-name="Gruppe 312" transform="translate(200.887 97.734)">
      <path id="Pfad_82" data-name="Pfad 82" d="M156.54,92.352h10.473v40.426H156.54ZM169.092,99.9a7.585,7.585,0,1,1,7.622,7.546A7.591,7.591,0,0,1,169.092,99.9Z" transform="translate(-156.54 -92.274)"/>
    </g>
    <g id="Gruppe_313" data-name="Gruppe 313" transform="translate(234.081 97.81)">
      <path id="Pfad_83" data-name="Pfad 83" d="M186.68,92.319v40.428H176.207V92.319Z" transform="translate(-176.207 -92.319)"/>
    </g>
    <g id="Gruppe_314" data-name="Gruppe 314" transform="translate(251.024 88.571)">
      <path id="Pfad_84" data-name="Pfad 84" d="M186.246,103.4V96.086h7.317V86.845h10.471v9.241h12.706V103.4H204.034v33.111H193.563V103.4Zm75.392-7.315-25.874,55.058h-10.4l9.626-19.867L218.439,96.086h11.242l11.089,25.025,11.011-25.025Z" transform="translate(-186.246 -86.845)"/>
    </g>
  </g>
</svg>
